<?xml version="1.0" standalone="no"?>
<!DOCTYPE svg PUBLIC "-//W3C//DTD SVG 20010904//EN"
 "http://www.w3.org/TR/2001/REC-SVG-20010904/DTD/svg10.dtd">
<svg version="1.0" xmlns="http://www.w3.org/2000/svg"
 width="500.000000pt" height="500.000000pt" viewBox="0 0 500.000000 500.000000"
 preserveAspectRatio="xMidYMid meet">

<g transform="translate(0.000000,500.000000) scale(0.100000,-0.100000)"
fill="#000000" stroke="none">
<path d="M2205 3756 c-43 -18 -93 -79 -101 -122 -4 -20 -1 -53 5 -74 14 -48
78 -107 125 -116 56 -10 104 4 147 43 70 63 76 151 16 220 -52 60 -125 78
-192 49z m126 -41 c63 -33 86 -112 49 -172 -83 -137 -298 -24 -225 118 32 61
113 86 176 54z"/>
<path d="M2853 3555 c-106 -29 -196 -87 -298 -191 -38 -39 -88 -97 -110 -127
-22 -31 -43 -57 -47 -57 -3 0 -16 15 -27 34 -52 84 -155 152 -249 163 -154 18
-367 -104 -508 -290 -61 -80 -139 -242 -164 -343 -38 -149 -39 -364 -2 -364
16 0 17 11 14 103 -3 68 1 132 12 191 64 341 337 648 592 664 68 4 79 2 140
-28 46 -23 76 -46 106 -83 65 -83 65 -85 19 -158 -22 -35 -41 -72 -41 -81 0
-40 30 -13 79 70 145 245 319 411 480 459 84 24 184 14 267 -27 82 -40 189
-139 261 -242 38 -54 61 -78 75 -78 26 0 21 13 -44 106 -60 88 -174 198 -245
236 -100 55 -209 70 -310 43z"/>
<path d="M2800 3285 c0 -12 34 -15 223 -17 214 -3 222 -4 222 -23 0 -18 -8
-21 -73 -25 -58 -4 -77 -9 -88 -24 -19 -27 -18 -60 4 -79 16 -15 53 -17 310
-17 252 0 292 2 292 15 0 13 -42 15 -292 17 -285 3 -293 4 -293 23 0 18 8 21
73 25 58 4 77 9 88 24 19 27 18 60 -4 79 -16 15 -48 17 -240 17 -189 0 -222
-2 -222 -15z"/>
<path d="M3495 3043 c75 -174 113 -315 122 -450 5 -94 8 -103 26 -103 19 0 20
5 14 88 -7 107 -28 208 -68 332 -41 124 -55 150 -80 150 -16 0 -19 -4 -14 -17z"/>
<path d="M1760 2490 c0 -251 2 -290 15 -290 13 0 15 39 15 290 0 251 -2 290
-15 290 -13 0 -15 -39 -15 -290z"/>
<path d="M2070 2659 c0 -92 3 -120 13 -117 8 3 13 39 15 121 2 100 0 117 -13
117 -13 0 -15 -19 -15 -121z"/>
<path d="M2125 2768 c-3 -7 -4 -137 -3 -288 3 -237 5 -275 18 -275 13 0 15 26
18 167 2 155 4 167 22 173 28 9 42 67 38 155 -2 62 -6 75 -20 78 -16 3 -18 -7
-18 -97 0 -134 -18 -143 -22 -10 -2 71 -7 104 -15 107 -7 2 -15 -2 -18 -10z"/>
<path d="M2490 2760 c-10 -18 -21 -20 -130 -20 -100 0 -120 -3 -120 -15 0 -12
14 -15 66 -15 l65 0 -3 -47 -3 -48 -63 -3 c-84 -4 -79 -26 6 -30 l62 -3 0 -85
c0 -64 3 -85 13 -82 8 3 13 32 15 86 l3 82 59 0 c47 0 60 3 60 15 0 12 -13 15
-60 15 l-60 0 0 50 0 50 44 0 c48 0 76 19 76 51 0 25 -16 24 -30 -1z"/>
<path d="M1637 2693 c-4 -3 -7 -81 -7 -173 0 -149 -2 -169 -18 -183 -16 -15
-45 -17 -191 -17 l-172 0 3 23 c2 17 11 23 36 25 63 6 82 85 27 110 -35 16
-431 17 -441 1 -14 -23 27 -29 228 -29 133 0 209 -4 213 -10 10 -16 -15 -40
-41 -40 -27 0 -64 -32 -64 -55 0 -9 11 -27 25 -40 23 -24 29 -25 168 -25 171
0 199 4 232 38 25 25 25 26 25 203 0 164 -4 192 -23 172z"/>
<path d="M1890 2526 l0 -176 28 -29 c28 -31 72 -44 79 -24 3 7 -12 19 -31 27
-20 8 -37 16 -38 18 -1 2 -4 81 -7 177 -4 127 -9 176 -18 179 -10 3 -13 -36
-13 -172z"/>
<path d="M2240 2686 c0 -8 9 -18 20 -21 11 -3 20 -13 20 -21 0 -8 7 -14 15
-14 21 0 19 33 -3 53 -23 21 -52 22 -52 3z"/>
<path d="M2470 2680 c-21 -21 -27 -50 -10 -50 12 0 60 48 60 60 0 17 -29 11
-50 -10z"/>
<path d="M3116 2579 c-25 -30 -26 -34 -26 -176 l0 -145 29 -29 c47 -47 132
-33 159 26 18 38 16 105 -3 105 -11 0 -15 -11 -15 -40 0 -76 -72 -116 -118
-67 -20 21 -22 34 -22 155 0 119 2 134 20 152 44 44 130 1 115 -58 -8 -32 12
-89 33 -97 9 -3 103 -6 208 -5 165 0 193 -2 205 -16 11 -14 11 -18 -6 -30 -10
-8 -29 -14 -40 -14 -32 0 -50 -26 -74 -109 -25 -83 -80 -211 -91 -211 -4 0
-42 10 -86 21 -59 16 -110 22 -199 23 -119 0 -121 0 -270 -51 -272 -93 -345
-95 -596 -15 -231 75 -293 87 -444 86 -101 0 -151 -5 -223 -23 -51 -13 -96
-21 -99 -17 -3 3 -20 42 -39 88 -25 62 -38 84 -54 86 -20 3 -19 2 6 -70 98
-272 302 -502 559 -631 72 -35 208 -82 290 -98 90 -18 320 -18 410 0 252 50
501 198 655 388 79 99 120 166 168 275 29 67 35 94 34 138 -2 53 -2 54 13 33
16 -22 21 -23 191 -23 147 0 174 2 174 15 0 12 -28 15 -167 17 -166 3 -168 3
-171 26 -3 19 1 22 27 22 56 0 88 53 57 96 -13 17 -31 19 -223 24 l-208 5 -6
64 c-8 81 -36 111 -104 111 -36 0 -47 -5 -69 -31z m-1052 -544 c48 -8 157 -38
243 -66 258 -83 365 -87 558 -18 187 66 260 81 370 75 93 -5 210 -28 228 -45
8 -8 -56 -103 -113 -168 l-35 -40 -88 15 c-115 20 -204 8 -349 -47 -195 -74
-297 -77 -471 -15 -208 74 -271 87 -407 88 -86 0 -143 -5 -183 -16 l-59 -17
-30 35 c-53 60 -128 165 -128 178 0 7 100 36 158 46 79 13 215 11 306 -5z m81
-270 c39 -8 138 -38 220 -67 143 -50 154 -52 250 -51 105 0 142 9 320 74 81
30 100 33 195 33 58 0 115 -5 128 -10 23 -10 20 -13 -55 -72 -140 -112 -338
-198 -512 -223 -111 -16 -303 -6 -403 20 -103 27 -215 72 -297 121 -70 42
-206 149 -198 156 2 3 33 11 68 19 85 18 198 18 284 0z"/>
<path d="M2280 2535 c0 -24 -6 -37 -20 -45 -27 -15 -25 -30 5 -30 29 0 45 26
45 74 0 25 -4 36 -15 36 -10 0 -15 -11 -15 -35z"/>
<path d="M2450 2531 c0 -43 20 -71 51 -71 25 0 24 16 -1 30 -14 8 -20 21 -20
45 0 24 -5 35 -15 35 -11 0 -15 -11 -15 -39z"/>
<path d="M2077 2484 c-4 -4 -7 -70 -7 -146 0 -107 3 -139 13 -136 8 3 13 42
15 138 2 123 -3 161 -21 144z"/>
<path d="M2186 2483 c-3 -3 -6 -69 -6 -145 0 -116 2 -138 15 -138 13 0 15 22
15 139 0 127 -6 162 -24 144z"/>
<path d="M2257 2382 c-12 -13 -17 -37 -17 -84 0 -92 9 -98 141 -98 137 0 144
5 144 100 0 96 -6 100 -145 100 -91 0 -109 -3 -123 -18z m111 -39 c3 -21 0
-23 -47 -23 -43 0 -51 3 -51 18 0 28 10 33 55 30 33 -2 41 -7 43 -25z m120 0
c3 -21 -1 -23 -42 -23 -43 0 -46 2 -46 26 0 23 3 25 43 22 35 -2 43 -7 45 -25z
m-120 -85 c-3 -20 -9 -23 -48 -23 -39 0 -45 3 -48 23 -3 20 0 22 48 22 48 0
51 -2 48 -22z m120 0 c-2 -19 -10 -24 -45 -26 -40 -3 -43 -1 -43 22 0 24 3 26
46 26 41 0 45 -2 42 -22z"/>
<path d="M2610 2371 c-24 -23 -30 -38 -30 -71 0 -33 6 -48 30 -71 26 -26 36
-30 77 -27 58 4 64 22 8 26 -23 2 -49 12 -62 24 -49 46 -13 114 62 120 56 4
50 22 -8 26 -41 3 -51 -1 -77 -27z"/>
</g>
</svg>
